<svg xmlns="http://www.w3.org/2000/svg" viewBox="0 0 64 64"><rect x="1" y="1" width="62" height="62" rx="15" fill="#f9e5e3"/><g transform="translate(7.000 9.653) scale(0.04869) translate(-26 -80)" fill="#a86b68"><path d="M599.02,966.83l46.65-44.85c15.66.11,31.02,6.31,46.81,7.48,137.91,10.19,262.45-78.65,287.53-215.98,35.91-196.63-149.85-361.49-341.23-301.85-168.78,52.6-239.62,258.98-138.33,404.47-.76,4.51-41.28,32.79-46.08,32.82-3.64.02-14.61-18.26-17-22.36-108.59-186.7-2.02-428.17,206.04-477.17,254.34-59.89,471.91,188.86,378.03,433.06-64.16,166.9-255.38,249.88-422.43,184.38Z"/><path d="M480.98,363.03l-46.65,44.85c-15.66-.11-31.02-6.31-46.81-7.48-137.91-10.19-262.45,78.65-287.53,215.98-35.91,196.63,149.85,361.49,341.23,301.85,168.78-52.6,239.62-258.98,138.33-404.47.76-4.51,41.28-32.79,46.08-32.82,3.64-.02,14.61,18.26,17,22.36,108.59,186.7,2.02,428.17-206.04,477.17-254.34,59.89-471.91-188.86-378.03-433.06,64.18-166.94,255.35-249.84,422.43-184.38Z"/><path d="M472.65,92.09c30.5-4.45,47.13,7.65,66.64,28.85,3.44.6,15.49-14.59,19.4-17.56,55.58-42.06,131.44,26.89,75.78,91.51-27.83,32.31-64.73,61.5-93.76,93.23l-4.7-2.74c-23.67-32.08-93.33-79.31-106.2-114.12-12.29-33.22,6.32-73.84,42.84-79.18Z"/></g></svg>
